<?xml version="1.0" standalone="no"?>
<svg viewBox="0 0 200 200" xmlns="http://www.w3.org/2000/svg">
  <path fill="#29706B" d="M45.9,-64.4C56.7,-64.5,60.7,-47,65.5,-31.4C70.3,-15.8,75.9,-2,65.8,3.5C55.7,9,29.9,6.3,17,6.6C4.1,7,4.1,10.4,-0.6,23.6C-5.3,36.7,-14.7,59.5,-25.2,65.6C-35.6,71.7,-47,61.2,-43.8,47.6C-40.5,34,-22.6,17.3,-23.7,4C-24.7,-9.4,-44.7,-19.5,-50.6,-30C-56.5,-40.6,-48.4,-51.6,-37.6,-51.6C-26.8,-51.5,-13.4,-40.4,2.1,-43.7C17.6,-46.9,35.1,-64.4,45.9,-64.4Z" transform="translate(100 100)" />
</svg>
