<svg xmlns="http://www.w3.org/2000/svg" xmlns:xlink="http://www.w3.org/1999/xlink" width="940" zoomAndPan="magnify" viewBox="0 0 705 591.000005" height="788" preserveAspectRatio="xMidYMid meet" version="1.0"><defs><clipPath id="id1"><path d="M 172 335 L 396 335 L 396 549 L 172 549 Z M 172 335 " clip-rule="nonzero"/></clipPath><clipPath id="id2"><path d="M -119.628906 358.304688 L 163.617188 75.058594 L 497.691406 409.128906 L 214.441406 692.378906 Z M -119.628906 358.304688 " clip-rule="nonzero"/></clipPath><clipPath id="id3"><path d="M -119.628906 358.304688 L 163.617188 75.058594 L 497.691406 409.128906 L 214.441406 692.378906 Z M -119.628906 358.304688 " clip-rule="nonzero"/></clipPath><clipPath id="id4"><path d="M 14 168 L 260 168 L 260 549 L 14 549 Z M 14 168 " clip-rule="nonzero"/></clipPath><clipPath id="id5"><path d="M -119.628906 358.304688 L 163.617188 75.058594 L 497.691406 409.128906 L 214.441406 692.378906 Z M -119.628906 358.304688 " clip-rule="nonzero"/></clipPath><clipPath id="id6"><path d="M -119.628906 358.304688 L 163.617188 75.058594 L 497.691406 409.128906 L 214.441406 692.378906 Z M -119.628906 358.304688 " clip-rule="nonzero"/></clipPath><clipPath id="id7"><path d="M 309 41 L 533 41 L 533 255 L 309 255 Z M 309 41 " clip-rule="nonzero"/></clipPath><clipPath id="id8"><path d="M 207.433594 181.199219 L 490.679688 -102.046875 L 824.753906 232.023438 L 541.507812 515.273438 Z M 207.433594 181.199219 " clip-rule="nonzero"/></clipPath><clipPath id="id9"><path d="M 824.628906 231.6875 L 541.382812 514.933594 L 207.308594 180.859375 L 490.558594 -102.386719 Z M 824.628906 231.6875 " clip-rule="nonzero"/></clipPath><clipPath id="id10"><path d="M 445 41 L 691 41 L 691 422 L 445 422 Z M 445 41 " clip-rule="nonzero"/></clipPath><clipPath id="id11"><path d="M 207.433594 181.199219 L 490.679688 -102.046875 L 824.753906 232.023438 L 541.507812 515.273438 Z M 207.433594 181.199219 " clip-rule="nonzero"/></clipPath><clipPath id="id12"><path d="M 824.628906 231.6875 L 541.382812 514.933594 L 207.308594 180.859375 L 490.558594 -102.386719 Z M 824.628906 231.6875 " clip-rule="nonzero"/></clipPath></defs><g clip-path="url(#id1)"><g clip-path="url(#id2)"><g clip-path="url(#id3)"><path fill="#0c2f3f" d="M 172.808594 399.011719 L 310.996094 399.085938 L 311.011719 548.867188 C 357.914062 548.890625 395.917969 510.886719 395.890625 463.984375 L 395.824219 335.867188 L 172.773438 335.679688 Z M 172.808594 399.011719 " fill-opacity="1" fill-rule="nonzero"/></g></g></g><g clip-path="url(#id4)"><g clip-path="url(#id5)"><g clip-path="url(#id6)"><path fill="#0c2f3f" d="M 253.703125 168.1875 L 140.15625 168.128906 C 70.597656 168.089844 14.320312 224.367188 14.359375 293.925781 L 14.425781 422.839844 C 14.464844 492.398438 70.804688 548.738281 140.359375 548.777344 L 253.90625 548.835938 C 256.953125 548.839844 259.335938 546.453125 259.335938 543.40625 L 259.296875 471.597656 C 259.296875 468.550781 256.910156 466.164062 253.863281 466.160156 L 121.4375 466.15625 C 109.644531 466.152344 100.167969 456.671875 100.160156 444.878906 L 100.136719 275.753906 C 100.128906 263.964844 109.597656 254.496094 121.390625 254.5 L 253.75 254.574219 C 256.796875 254.574219 259.179688 252.191406 259.179688 249.144531 L 259.136719 173.492188 C 259.136719 170.574219 256.75 168.191406 253.703125 168.1875 Z M 253.703125 168.1875 " fill-opacity="1" fill-rule="nonzero"/></g></g></g><g clip-path="url(#id7)"><g clip-path="url(#id8)"><g clip-path="url(#id9)"><path fill="#0c2f3f" d="M 532.191406 190.980469 L 394.003906 190.90625 L 393.988281 41.125 C 347.085938 41.097656 309.082031 79.101562 309.109375 126.003906 L 309.175781 254.125 L 532.226562 254.308594 Z M 532.191406 190.980469 " fill-opacity="1" fill-rule="nonzero"/></g></g></g><g clip-path="url(#id10)"><g clip-path="url(#id11)"><g clip-path="url(#id12)"><path fill="#0c2f3f" d="M 451.296875 421.800781 L 564.84375 421.863281 C 634.402344 421.898438 690.679688 365.621094 690.640625 296.0625 L 690.574219 167.148438 C 690.535156 97.589844 634.195312 41.25 564.636719 41.214844 L 451.09375 41.152344 C 448.046875 41.152344 445.664062 43.535156 445.664062 46.582031 L 445.703125 118.394531 C 445.703125 121.441406 448.089844 123.828125 451.136719 123.828125 L 583.5625 123.832031 C 595.355469 123.839844 604.832031 133.316406 604.839844 145.109375 L 604.863281 314.234375 C 604.871094 326.027344 595.402344 335.496094 583.609375 335.488281 L 451.25 335.417969 C 448.203125 335.414062 445.820312 337.800781 445.820312 340.847656 L 445.863281 416.5 C 445.863281 419.414062 448.25 421.800781 451.296875 421.800781 Z M 451.296875 421.800781 " fill-opacity="1" fill-rule="nonzero"/></g></g></g></svg>